<svg xmlns="http://www.w3.org/2000/svg" width="64" height="64" viewBox="0 0 64 64" fill="none">
<path d="M48.25 28V53.25H34.75V39.25H23.25V53.25H9.75V28" stroke="hsl(215, 97%, 31%)" stroke-width="1.5"/>
<path d="M41 22C41 25.3137 43.6863 28 47 28C50.3137 28 53 25.3137 53 22L47 9.73999H11L5 22C5 25.3137 7.68629 28 11 28C14.3137 28 17 25.3137 17 22M41 22C41 25.3137 38.3137 28 35 28C31.6863 28 29 25.3137 29 22M41 22L39 10M29 22C29 25.3137 26.3137 28 23 28C19.6863 28 17 25.3137 17 22M29 22V10M17 22L19 10" stroke="hsl(215, 97%, 31%)" stroke-width="1.5"/>
<circle cx="50.5" cy="48.5" r="9.75" fill="hsl(0, 0%, 100%)" stroke="hsl(215, 97%, 31%)" stroke-width="1.5"/>
<path d="M53.4862 51.7566L53.4862 51.7566L53.4869 51.7552C53.6305 51.4426 53.7031 51.1195 53.7031 50.7872C53.7031 50.0764 53.4715 49.4943 52.9999 49.0569C52.5367 48.6274 51.7782 48.274 50.7461 47.9859L50.745 47.9857C50.2812 47.8599 49.9042 47.7313 49.6121 47.6007C49.3267 47.4695 49.1105 47.3378 48.9582 47.2076C48.8153 47.0787 48.7205 46.9443 48.6669 46.8052C48.6174 46.6558 48.5922 46.4942 48.5922 46.3196C48.5922 45.9523 48.7344 45.6478 49.028 45.3972L49.028 45.3972L49.0296 45.3958C49.3185 45.1422 49.7464 45.0042 50.3364 45.0042C50.5763 45.0042 50.808 45.0379 51.032 45.1051L51.0319 45.1052L51.0376 45.1067C51.2645 45.1652 51.4638 45.2634 51.6372 45.4007L51.6371 45.4008L51.6427 45.4048C51.8217 45.5337 51.9746 45.7072 52.1002 45.9289L52.1002 45.9289L52.1021 45.9321C52.2321 46.1488 52.318 46.4136 52.3558 46.7304L52.3795 46.9296L52.5638 46.8506L53.3978 46.4932L53.5063 46.4466L53.4865 46.3302C53.4124 45.8938 53.2755 45.5164 53.0719 45.2022C52.8722 44.8863 52.6334 44.6258 52.3547 44.4231C52.0769 44.2211 51.7624 44.0746 51.4125 43.9828C51.0656 43.8838 50.7068 43.8345 50.3364 43.8345C49.8942 43.8345 49.4853 43.8959 49.111 44.0204C48.738 44.1367 48.4147 44.308 48.144 44.5361C47.8734 44.7562 47.6614 45.0234 47.5091 45.3366C47.3555 45.6523 47.2795 45.9966 47.2795 46.3672C47.2795 47.0697 47.5069 47.6441 47.971 48.0737L47.9721 48.0747C48.4267 48.4872 49.1761 48.8365 50.1993 49.1323C51.0955 49.394 51.6695 49.6566 51.9518 49.91L51.9518 49.91L51.9532 49.9112C52.2392 50.1614 52.3785 50.4661 52.3785 50.8348C52.3785 51.2142 52.2239 51.5202 51.9022 51.7633C51.5882 51.9988 51.1321 52.1263 50.5151 52.1263C49.9066 52.1263 49.3943 51.9709 48.9706 51.6661C48.5519 51.365 48.3027 50.9527 48.2211 50.419L48.1948 50.2465L48.0282 50.2985L47.1109 50.5844L46.9824 50.6244L47.0083 50.7564C47.0911 51.1788 47.241 51.5551 47.4596 51.883L47.4596 51.883L47.4611 51.8852C47.6854 52.2093 47.9527 52.477 48.2629 52.6866C48.5709 52.8947 48.9153 53.052 49.2949 53.1593L49.2949 53.1594L49.2978 53.1601C49.6757 53.2587 50.0617 53.308 50.4556 53.308C50.9684 53.308 51.4293 53.2429 51.8365 53.1099L51.8365 53.1099L51.8391 53.109C52.2412 52.9695 52.5798 52.7869 52.8508 52.5585C53.1284 52.3311 53.3412 52.0638 53.4862 51.7566Z" fill="hsl(215, 97%, 31%)" stroke="hsl(215, 97%, 31%)" stroke-width="0.3"/>
<path d="M50.3782 42.856V54.1464" stroke="hsl(215, 97%, 31%)" stroke-width="1.3"/>
</svg>